<!-- Generated by IcoMoon.io -->
<svg version="1.1" xmlns="http://www.w3.org/2000/svg" width="32" height="32" viewBox="0 0 32 32">
<title>delete</title>
<path d="M28.548 7.635h-1.298v-1.587c0-2.452-1.731-4.327-3.894-4.327h-13.558c-2.163 0-3.894 1.875-3.894 4.327v1.731h-1.298c-0.577 0-1.154 0.433-1.154 1.154s0.433 0.865 1.154 0.865h23.943c0.577 0 1.154-0.433 1.154-1.154s-0.577-1.010-1.154-1.010zM8.067 7.635v-1.587c0-1.154 0.865-2.163 1.731-2.163h13.558c1.010 0 1.731 1.010 1.731 2.163v1.731h-17.019z"></path>
<path d="M23.356 30.279h-13.558c-2.163 0-3.894-1.731-3.894-3.75v-14.712c0-0.577 0.433-1.154 1.154-1.154s1.010 0.577 1.010 1.154v14.856c0 0.865 0.721 1.587 1.731 1.587h13.558c1.010 0 1.731-0.721 1.731-1.587v-14.856c0-0.577 0.433-1.154 1.154-1.154s1.154 0.433 1.154 1.154v14.856c-0.144 2.019-1.875 3.606-4.039 3.606z"></path>
<path d="M20.183 25.519c-0.577 0-1.154-0.433-1.154-1.154v-10.817c0-0.577 0.433-1.154 1.154-1.154s1.154 0.433 1.154 1.154v10.817c-0.144 0.577-0.577 1.154-1.154 1.154z"></path>
<path d="M12.971 25.519c-0.577 0-1.154-0.433-1.154-1.154v-10.817c0-0.577 0.433-1.154 1.154-1.154s1.154 0.433 1.154 1.154v10.817c-0.144 0.577-0.577 1.154-1.154 1.154z"></path>
</svg>
